<svg width="60" height="60" viewBox="0 0 60 60" fill="none" xmlns="http://www.w3.org/2000/svg">
<g clip-path="url(#clip0_274_6)">
<circle cx="30" cy="30" r="29.25" fill="white" stroke="black" stroke-width="1.5"/>
<path d="M30.0508 17.4453C33.7357 17.4453 36.4245 18.2005 38.1172 19.7109C39.8099 21.2214 40.6562 23.3372 40.6562 26.0586C40.6562 27.2956 40.4609 28.474 40.0703 29.5938C39.6927 30.7005 39.0677 31.6836 38.1953 32.543C37.3229 33.3893 36.1706 34.0599 34.7383 34.5547C33.319 35.0495 31.5677 35.2969 29.4844 35.2969H26.4375V46H21.75V17.4453H30.0508ZM29.7383 21.332H26.4375V31.3906H28.9961C30.4674 31.3906 31.7174 31.2214 32.7461 30.8828C33.7747 30.5312 34.556 29.9779 35.0898 29.2227C35.6237 28.4674 35.8906 27.4714 35.8906 26.2344C35.8906 24.5807 35.3893 23.3503 34.3867 22.543C33.3971 21.7357 31.8477 21.332 29.7383 21.332Z" fill="black"/>
</g>
<defs>
<clipPath id="clip0_274_6">
<rect width="60" height="60" fill="white"/>
</clipPath>
</defs>
</svg>
